<svg id="Layer_1" data-name="Layer 1" xmlns="http://www.w3.org/2000/svg" viewBox="0 0 304 53.9"><defs><style>.cls-1{fill:#fcfcfc;}</style></defs><title>megafon-logo-white</title><g id="Page-1"><g id="megafon-logo-green"><g id="Group"><path id="Shape" class="cls-1" d="M30.3.7V28.5h0a2.16,2.16,0,0,1-2.2,2.2H24.8a.32.32,0,0,0-.3.3V54.3c.8,0,1.6.2,2.5.2A27,27,0,0,0,30.3.7Zm-.6,41.6A3.3,3.3,0,1,1,33,39,3.15,3.15,0,0,1,29.7,42.3Zm7.9,0A3.3,3.3,0,1,1,40.9,39,3.26,3.26,0,0,1,37.6,42.3Zm8,0A3.3,3.3,0,1,1,48.9,39,3.33,3.33,0,0,1,45.6,42.3Z" transform="translate(0 -0.6)"/><path id="Shape-2" data-name="Shape" class="cls-1" d="M27,.6a27,27,0,0,0-27,27A26.66,26.66,0,0,0,21.3,53.9V29.6h0a2.44,2.44,0,0,1,2-2.2h3.3a.32.32,0,0,0,.3-.3L27,.6ZM21.8,22.8a3.3,3.3,0,1,1,3.3-3.3A3.4,3.4,0,0,1,21.8,22.8Z" transform="translate(0 -0.6)"/></g><g id="Group-2" data-name="Group"><polygon id="Shape-3" data-name="Shape" class="cls-1" points="297.3 14.7 297.3 24.9 283.7 24.9 283.7 14.7 276.8 14.7 276.8 41.7 283.7 41.7 283.7 30.8 297.3 30.8 297.3 41.7 304 41.7 304 14.7 297.3 14.7"/><path id="Shape-4" data-name="Shape" class="cls-1" d="M184.9,18.4a6.1,6.1,0,0,0-5.5-3.7h0a6,6,0,0,0-5.5,3.7L163,42.4h7.2l2.4-5.7h14l2.4,5.7h7.2ZM174.5,31.3l4.1-9.9c.2-.3.3-.3.5-.3h0c.2,0,.5,0,.5.3l4.1,9.9Z" transform="translate(0 -0.6)"/><path id="Shape-5" data-name="Shape" class="cls-1" d="M104.5,10.5c-3.2,0-5.2,1.7-6.7,5.1L89.1,35.9,80.3,15.5c-1.4-3.3-3.5-5.1-6.7-5.1-3,0-6,2-6,6.7V42.2h6.7V18l8.9,20.1c1.1,2.9,3.2,4.6,5.9,4.6h0c2.9,0,4.8-1.7,5.9-4.6L103.9,18V42.5h6.7V17.4C110.5,12.7,107.5,10.5,104.5,10.5Z" transform="translate(0 -0.6)"/><path id="Shape-6" data-name="Shape" class="cls-1" d="M122.4,36.6a.75.75,0,0,1-.7-.7V31.1h16.8V25.6H121.7V21.5a.75.75,0,0,1,.7-.7h16.7V15.1h-20a4,4,0,0,0-4,4V38a4.08,4.08,0,0,0,4,4h20V36.3H122.4v.3Z" transform="translate(0 -0.6)"/><path id="Shape-7" data-name="Shape" class="cls-1" d="M150.4,42.3V21.7a.75.75,0,0,1,.7-.7h16.7V15.3h-20a4,4,0,0,0-4,4V42.2l6.6.1Z" transform="translate(0 -0.6)"/><path id="Shape-8" data-name="Shape" class="cls-1" d="M272.4,28.9c0-9.4-4.1-13.8-14.3-13.8h-2.4c-10.2,0-14.3,4.5-14.3,13.8h0c0,9.2,4.1,13.8,14.3,13.8h2.2c10.4-.2,14.5-4.6,14.5-13.8ZM257.9,37h-2.2c-5.5,0-7.8-2.5-7.8-8.1h0c0-5.4,1.9-8.1,7.8-8.1h2.2c5.7,0,7.8,2.7,7.8,8.1h0C265.7,34.4,263.6,37,257.9,37Z" transform="translate(0 -0.6)"/><path id="Shape-9" data-name="Shape" class="cls-1" d="M222.7,11.1H209.3c-10,0-14,5.1-14,13.8,0,1.4.2,2.7.3,3.8,1.1,6.2,4.8,10,14.1,10h3v3.5h6.7V38.7h2.9c9.4,0,13.1-3.8,14.1-10a21.69,21.69,0,0,0,.3-3.8C236.6,16.2,232.5,11.1,222.7,11.1Zm-10.2,22h-3c-4.6,0-6.2-1.7-7.2-4.5a14.64,14.64,0,0,1-.3-3.8c0-5.7,2.7-8.1,6.5-8.1h4.1V33.1h-.1Zm17.2-4.2c-1,2.7-2.7,4.5-7.2,4.5h-3V16.9h4.1c3.8,0,6.5,2.4,6.5,8.1A22.3,22.3,0,0,1,229.7,28.9Z" transform="translate(0 -0.6)"/></g></g></g></svg>